<svg id="Layer_1" data-name="Layer 1" xmlns="http://www.w3.org/2000/svg" viewBox="0 0 338.48 263.31"><defs><style>.cls-1,.cls-2{fill:#20b2aa;stroke:#20b2aa;}.cls-1{stroke-miterlimit:10;}.cls-2{stroke-linecap:square;stroke-width:6.2px;fill-rule:evenodd;}</style></defs><title>population-1955</title><path id="path2558" class="cls-1" d="M7181.66,7324.18c-4.2-1.38-7.52-4.48-8.47-7.9-.38-1.37-.56-29.25-.56-86.73v-84.71h-4.25v32c0,31.35,0,32-1.1,33.91-1.4,2.45-3,3.61-6,4.43a9.69,9.69,0,0,1-11.28-5.27c-1.15-2.68-1.07-74.16.08-78.6,2.6-10,11-18.17,20.85-20.25,5.18-1.1,53-1.11,58.2,0a26.61,26.61,0,0,1,13.76,7.68,25.67,25.67,0,0,1,7.46,13.14c1,3.9,1.05,6,1.05,39.95,0,31.05-.11,36.11-.81,37.8a8.14,8.14,0,0,1-4.77,5c-4.2,1.93-9.54.69-12-2.8l-1.28-1.79-.15-32.58-.14-32.58H7228V7230c0,93.32.21,87.12-3.09,90.6-2.6,2.74-5.26,3.78-9.68,3.78s-7.07-1-9.68-3.78c-3.23-3.41-3.09-.77-3.09-55.49v-50h-4.25v50c0,40.76-.14,50.34-.72,51.73a13.37,13.37,0,0,1-5.85,6.33c-2.36,1.2-7.71,1.76-9.93,1Z" transform="translate(-7031 -7061.69)"/><path id="path5075" class="cls-2" d="M7220.86,7084.9c0,11.11-9.25,20.11-20.66,20.11s-20.67-9-20.67-20.11,9.25-20.11,20.67-20.11S7220.86,7073.8,7220.86,7084.9Z" transform="translate(-7031 -7061.69)"/><path id="path2558-2" data-name="path2558" class="cls-1" d="M7064,7324.18c-4.2-1.38-7.53-4.48-8.48-7.9-.38-1.37-.56-29.25-.56-86.73v-84.71h-4.26v32c0,31.35,0,32-1.1,33.91-1.4,2.45-3,3.61-6,4.43a9.71,9.71,0,0,1-11.29-5.27c-1.14-2.68-1.07-74.16.08-78.6,2.61-10,11-18.17,20.86-20.25,5.17-1.1,53-1.11,58.19,0a26.64,26.64,0,0,1,13.77,7.68,25.74,25.74,0,0,1,7.46,13.14c1,3.9,1,6,1,39.95,0,31.05-.11,36.11-.82,37.8a8.11,8.11,0,0,1-4.77,5c-4.2,1.93-9.54.69-12-2.8l-1.28-1.79-.14-32.58-.15-32.58h-4.23V7230c0,93.32.21,87.12-3.09,90.6-2.6,2.74-5.26,3.78-9.68,3.78s-7.07-1-9.68-3.78c-3.23-3.41-3.08-.77-3.08-55.49v-50h-4.26v50c0,40.76-.13,50.34-.72,51.73a13.37,13.37,0,0,1-5.85,6.33c-2.36,1.2-7.71,1.76-9.92,1Z" transform="translate(-7031 -7061.69)"/><path id="path5075-2" data-name="path5075" class="cls-2" d="M7103.24,7084.9c0,11.11-9.26,20.11-20.67,20.11s-20.67-9-20.67-20.11,9.26-20.11,20.67-20.11S7103.24,7073.8,7103.24,7084.9Z" transform="translate(-7031 -7061.69)"/><path id="path2558-3" data-name="path2558" class="cls-1" d="M7299.29,7324.18c-4.2-1.38-7.53-4.48-8.48-7.9-.38-1.37-.56-29.25-.56-86.73v-84.71H7286v32c0,31.35,0,32-1.1,33.91-1.39,2.45-3,3.61-6,4.43a9.69,9.69,0,0,1-11.28-5.27c-1.15-2.68-1.08-74.16.08-78.6,2.6-10,11-18.17,20.85-20.25,5.18-1.1,53-1.11,58.19,0a26.64,26.64,0,0,1,13.77,7.68,25.67,25.67,0,0,1,7.46,13.14c1,3.9,1,6,1,39.95,0,31.05-.11,36.11-.82,37.8a8.08,8.08,0,0,1-4.77,5c-4.2,1.93-9.53.69-12-2.8l-1.27-1.79-.15-32.58-.14-32.58h-4.24V7230c0,93.32.21,87.12-3.08,90.6-2.61,2.74-5.27,3.78-9.68,3.78s-7.08-1-9.68-3.78c-3.24-3.41-3.09-.77-3.09-55.49v-50h-4.26v50c0,40.76-.13,50.34-.71,51.73a13.47,13.47,0,0,1-5.85,6.33c-2.36,1.2-7.72,1.76-9.93,1Z" transform="translate(-7031 -7061.69)"/><path id="path5075-3" data-name="path5075" class="cls-2" d="M7338.49,7084.9c0,11.11-9.25,20.11-20.67,20.11s-20.66-9-20.66-20.11,9.25-20.11,20.66-20.11S7338.49,7073.8,7338.49,7084.9Z" transform="translate(-7031 -7061.69)"/></svg>