<?xml version="1.0" encoding="utf-8"?>
<!-- Generator: Adobe Illustrator 24.0.3, SVG Export Plug-In . SVG Version: 6.00 Build 0)  -->
<svg version="1.1" id="Layer_1" xmlns="http://www.w3.org/2000/svg" xmlns:xlink="http://www.w3.org/1999/xlink" x="0px" y="0px"
	 viewBox="0 0 691.4 263.3" style="enable-background:new 0 0 691.4 263.3;" xml:space="preserve">
<style type="text/css">
	.st0{fill:#20B2AA;stroke:#20B2AA;stroke-miterlimit:10;}
	.st1{fill-rule:evenodd;clip-rule:evenodd;fill:#20B2AA;stroke:#20B2AA;stroke-width:6.2;stroke-linecap:square;}
</style>
<title>population-2020</title>
<g>
	<path id="path2558" class="st0" d="M230,262.5c-4.2-1.4-7.5-4.5-8.5-7.9c-0.4-1.4-0.6-29.2-0.6-86.7V83.2h-4.2v32
		c0,31.4,0,32-1.1,33.9c-1.4,2.5-3,3.6-6,4.4c-4.5,1.2-9.3-1-11.3-5.3c-1.1-2.7-1.1-74.2,0.1-78.6c2.6-10,11-18.2,20.9-20.2
		c5.2-1.1,53-1.1,58.2,0c5.3,1.1,10.1,3.8,13.8,7.7c3.7,3.5,6.3,8.1,7.5,13.1c1,3.9,1,6,1,40c0,31-0.1,36.1-0.8,37.8
		c-0.8,2.3-2.5,4.1-4.8,5c-4.2,1.9-9.5,0.7-12-2.8l-1.3-1.8l-0.1-32.6l-0.1-32.6h-4.2v85.1c0,93.3,0.2,87.1-3.1,90.6
		c-2.6,2.7-5.3,3.8-9.7,3.8s-7.1-1-9.7-3.8c-3.2-3.4-3.1-0.8-3.1-55.5v-50h-4.2v50c0,40.8-0.1,50.3-0.7,51.7
		c-1.2,2.7-3.3,4.9-5.9,6.3C237.6,262.7,232.2,263.2,230,262.5L230,262.5z"/>
	<path id="path5075" class="st1" d="M269.2,23.2c0,11.1-9.2,20.1-20.7,20.1c-11.4,0-20.7-9-20.7-20.1s9.2-20.1,20.7-20.1
		C259.9,3.1,269.2,12.1,269.2,23.2z"/>
</g>
<g>
	<path id="path2558-2" class="st0" d="M132.2,262.5c-4.2-1.4-7.5-4.5-8.5-7.9c-0.4-1.4-0.6-29.2-0.6-86.7V83.2h-4.3v32
		c0,31.4,0,32-1.1,33.9c-1.4,2.5-3,3.6-6,4.4c-4.5,1.2-9.3-1-11.3-5.3c-1.1-2.7-1.1-74.2,0.1-78.6c2.6-10,11-18.2,20.9-20.2
		c5.2-1.1,53-1.1,58.2,0c5.3,1.1,10.1,3.8,13.8,7.7c3.7,3.5,6.3,8.1,7.5,13.1c1,3.9,1,6,1,40c0,31-0.1,36.1-0.8,37.8
		c-0.8,2.3-2.5,4.1-4.8,5c-4.2,1.9-9.5,0.7-12-2.8l-1.3-1.8l-0.1-32.6l-0.1-32.6h-4.2v85.1c0,93.3,0.2,87.1-3.1,90.6
		c-2.6,2.7-5.3,3.8-9.7,3.8s-7.1-1-9.7-3.8c-3.2-3.4-3.1-0.8-3.1-55.5v-50h-4.3v50c0,40.8-0.1,50.3-0.7,51.7
		c-1.2,2.7-3.3,4.9-5.9,6.3C139.8,262.7,134.4,263.2,132.2,262.5L132.2,262.5z"/>
	<path id="path5075-2" class="st1" d="M171.5,23.2c0,11.1-9.3,20.1-20.7,20.1s-20.7-9-20.7-20.1s9.3-20.1,20.7-20.1
		S171.5,12.1,171.5,23.2z"/>
</g>
<g>
	<path id="path2558-3" class="st0" d="M327.8,262.5c-4.2-1.4-7.5-4.5-8.5-7.9c-0.4-1.4-0.6-29.2-0.6-86.7V83.2h-4.2v32
		c0,31.4,0,32-1.1,33.9c-1.4,2.5-3,3.6-6,4.4c-4.5,1.2-9.3-1-11.3-5.3c-1.1-2.7-1.1-74.2,0.1-78.6c2.6-10,11-18.2,20.9-20.2
		c5.2-1.1,53-1.1,58.2,0c5.3,1.1,10.1,3.8,13.8,7.7c3.7,3.5,6.3,8.1,7.5,13.1c1,3.9,1,6,1,40c0,31-0.1,36.1-0.8,37.8
		c-0.8,2.3-2.5,4.1-4.8,5c-4.2,1.9-9.5,0.7-12-2.8l-1.3-1.8l-0.1-32.6l-0.1-32.6h-4.2v85.1c0,93.3,0.2,87.1-3.1,90.6
		c-2.6,2.7-5.3,3.8-9.7,3.8s-7.1-1-9.7-3.8c-3.2-3.4-3.1-0.8-3.1-55.5v-50h-4.3v50c0,40.8-0.1,50.3-0.7,51.7
		c-1.2,2.7-3.3,4.9-5.9,6.3C335.4,262.7,330,263.2,327.8,262.5L327.8,262.5z"/>
	<path id="path5075-3" class="st1" d="M367,23.2c0,11.1-9.2,20.1-20.7,20.1s-20.7-9-20.7-20.1s9.2-20.1,20.7-20.1S367,12.1,367,23.2
		z"/>
</g>
<g>
	<path id="path2558-4" class="st0" d="M523.4,262.5c-4.2-1.4-7.5-4.5-8.5-7.9c-0.4-1.4-0.6-29.2-0.6-86.7V83.2h-4.3v32
		c0,31.4,0,32-1.1,33.9c-1.4,2.5-3,3.6-6,4.4c-4.5,1.2-9.3-1-11.3-5.3c-1.1-2.7-1.1-74.2,0.1-78.6c2.6-10,11-18.2,20.9-20.2
		c5.2-1.1,53-1.1,58.2,0c5.3,1.1,10.1,3.8,13.8,7.7c3.7,3.5,6.3,8.1,7.5,13.1c1,3.9,1,6,1,40c0,31-0.1,36.1-0.8,37.8
		c-0.8,2.3-2.5,4.1-4.8,5c-4.2,1.9-9.5,0.7-12-2.8l-1.3-1.8l-0.1-32.6l-0.1-32.6h-4.2v85.1c0,93.3,0.2,87.1-3.1,90.6
		c-2.6,2.7-5.3,3.8-9.7,3.8s-7.1-1-9.7-3.8c-3.2-3.4-3.1-0.8-3.1-55.5v-50h-4.3v50c0,40.8-0.1,50.3-0.7,51.7
		c-1.2,2.7-3.3,4.9-5.9,6.3C530.9,262.7,525.5,263.2,523.4,262.5L523.4,262.5z"/>
	<path id="path5075-4" class="st1" d="M562.6,23.2c0,11.1-9.2,20.1-20.7,20.1s-20.7-9-20.7-20.1s9.2-20.1,20.7-20.1
		S562.6,12.1,562.6,23.2z"/>
</g>
<g>
	<path id="path2558-5" class="st0" d="M425.6,262.5c-4.2-1.4-7.5-4.5-8.5-7.9c-0.4-1.4-0.6-29.2-0.6-86.7V83.2h-4.3v32
		c0,31.4,0,32-1.1,33.9c-1.4,2.5-3,3.6-6,4.4c-4.5,1.2-9.3-1-11.3-5.3c-1.1-2.7-1.1-74.2,0.1-78.6c2.6-10,11-18.2,20.9-20.2
		c5.2-1.1,53-1.1,58.2,0c5.3,1.1,10.1,3.8,13.8,7.7c3.7,3.5,6.3,8.1,7.5,13.1c1,3.9,1.1,6,1.1,40c0,31-0.1,36.1-0.8,37.8
		c-0.8,2.3-2.5,4.1-4.8,5c-4.2,1.9-9.5,0.7-12-2.8l-1.3-1.8l-0.1-32.6l-0.1-32.6h-4.2v85.1c0,93.3,0.2,87.1-3.1,90.6
		c-2.6,2.7-5.3,3.8-9.7,3.8s-7.1-1-9.7-3.8c-3.2-3.4-3.1-0.8-3.1-55.5v-50h-4.3v50c0,40.8-0.1,50.3-0.7,51.7
		c-1.2,2.7-3.3,4.9-5.9,6.3C433.2,262.7,427.8,263.2,425.6,262.5L425.6,262.5z"/>
	<path id="path5075-5" class="st1" d="M464.8,23.2c0,11.1-9.3,20.1-20.7,20.1s-20.7-9-20.7-20.1s9.2-20.1,20.7-20.1
		S464.8,12.1,464.8,23.2z"/>
</g>
<g>
	<path id="path2558-6" class="st0" d="M621.2,262.5c-4.2-1.4-7.5-4.5-8.5-7.9c-0.4-1.4-0.6-29.2-0.6-86.7V83.2h-4.3v32
		c0,31.4,0,32-1.1,33.9c-1.4,2.5-3,3.6-6,4.4c-4.5,1.2-9.3-1-11.3-5.3c-1.1-2.7-1.1-74.2,0.1-78.6c2.6-10,11-18.2,20.9-20.2
		c5.2-1.1,53-1.1,58.2,0c5.3,1.1,10.1,3.8,13.8,7.7c3.7,3.5,6.3,8.1,7.5,13.1c1,3.9,1,6,1,40c0,31-0.1,36.1-0.8,37.8
		c-0.8,2.3-2.5,4.1-4.8,5c-4.2,1.9-9.5,0.7-12-2.8l-1.2-1.8l-0.1-32.6l-0.1-32.6h-4.2v85.2c0,93.3,0.2,87.1-3.1,90.6
		c-2.6,2.7-5.3,3.8-9.7,3.8s-7.1-1-9.7-3.8c-3.2-3.4-3.1-0.8-3.1-55.5v-50h-4.3v50c0,40.8-0.1,50.3-0.7,51.7
		c-1.2,2.7-3.3,4.9-5.9,6.3C628.8,262.7,623.4,263.2,621.2,262.5L621.2,262.5z"/>
	<path id="path5075-6" class="st1" d="M660.4,23.2c0,11.1-9.2,20.1-20.7,20.1s-20.7-9-20.7-20.1s9.3-20.1,20.7-20.1
		S660.4,12.1,660.4,23.2z"/>
</g>
<g>
	<path id="path2558-6_1_" class="st0" d="M34.4,262.8c-4.2-1.4-7.5-4.5-8.5-7.9c-0.4-1.4-0.6-29.2-0.6-86.7V83.5h-4.3v32
		c0,31.4,0,32-1.1,33.9c-1.4,2.5-3,3.6-6,4.4c-4.5,1.2-9.3-1-11.3-5.3C1.6,145.9,1.7,74.4,2.8,70c2.6-10,11-18.2,20.9-20.2
		c5.2-1.1,53-1.1,58.2,0c5.3,1.1,10.1,3.8,13.8,7.7c3.7,3.5,6.3,8.1,7.5,13.1c1,3.9,1,6,1,40c0,31-0.1,36.1-0.8,37.8
		c-0.8,2.3-2.5,4.1-4.8,5c-4.2,1.9-9.5,0.7-12-2.8l-1.2-1.8l-0.1-32.6L85,83.5h-4.2v85.2c0,93.3,0.2,87.1-3.1,90.6
		C75,262,72.4,263,68,263s-7.1-1-9.7-3.8c-3.2-3.4-3.1-0.8-3.1-55.5v-50h-4.3v50c0,40.8-0.1,50.3-0.7,51.7c-1.2,2.7-3.3,4.9-5.9,6.3
		C42,263,36.7,263.6,34.4,262.8L34.4,262.8z"/>
	<path id="path5075-6_1_" class="st1" d="M73.6,23.5c0,11.1-9.2,20.1-20.7,20.1s-20.7-9-20.7-20.1S41.5,3.4,52.9,3.4
		S73.6,12.4,73.6,23.5z"/>
</g>
</svg>
