<svg id="Layer_1" data-name="Layer 1" xmlns="http://www.w3.org/2000/svg" viewBox="0 0 700 300"><defs><style>.cls-1,.cls-2{fill:#20b2aa;stroke:#20b2aa;}.cls-1{stroke-miterlimit:10;}.cls-2{stroke-linecap:square;stroke-width:6.2px;fill-rule:evenodd;}</style></defs><title>population-2000</title><path id="path2558" class="cls-1" d="M155.16,274.68c-4.2-1.38-7.52-4.48-8.47-7.9-.38-1.37-.56-29.25-.56-86.73V95.34h-4.25v32c0,31.35,0,32-1.1,33.91-1.4,2.45-3,3.61-6,4.43a9.69,9.69,0,0,1-11.28-5.27c-1.15-2.68-1.07-74.16.08-78.6,2.6-10,11-18.17,20.85-20.25,5.18-1.1,53-1.11,58.2,0a26.61,26.61,0,0,1,13.76,7.68,25.67,25.67,0,0,1,7.46,13.14c1,3.9,1,6,1,40,0,31.05-.11,36.11-.81,37.8a8.14,8.14,0,0,1-4.77,5c-4.2,1.93-9.54.69-12-2.8L206,160.5l-.15-32.58-.14-32.58h-4.23v85.13c0,93.32.21,87.12-3.09,90.6-2.6,2.74-5.26,3.78-9.68,3.78s-7.07-1-9.68-3.78c-3.23-3.41-3.09-.77-3.09-55.49v-50h-4.25v50c0,40.76-.14,50.34-.72,51.73a13.37,13.37,0,0,1-5.85,6.33c-2.36,1.2-7.71,1.76-9.93,1Z"/><path id="path5075" class="cls-2" d="M194.36,35.4c0,11.11-9.25,20.11-20.66,20.11S153,46.51,153,35.4s9.25-20.11,20.67-20.11S194.36,24.3,194.36,35.4Z"/><path id="path2558-2" data-name="path2558" class="cls-1" d="M37.54,274.68c-4.2-1.38-7.53-4.48-8.48-7.9-.38-1.37-.56-29.25-.56-86.73V95.34H24.24v32c0,31.35,0,32-1.1,33.91-1.4,2.45-3,3.61-6,4.43a9.71,9.71,0,0,1-11.29-5.27c-1.14-2.68-1.07-74.16.08-78.6,2.61-10,11-18.17,20.86-20.25,5.17-1.1,53-1.11,58.19,0a26.64,26.64,0,0,1,13.77,7.68,25.74,25.74,0,0,1,7.46,13.14c1,3.9,1,6,1,40,0,31.05-.11,36.11-.82,37.8a8.11,8.11,0,0,1-4.77,5c-4.2,1.93-9.54.69-12-2.8l-1.28-1.79-.14-32.58-.15-32.58H83.82v85.13c0,93.32.21,87.12-3.09,90.6-2.6,2.74-5.26,3.78-9.68,3.78s-7.07-1-9.68-3.78c-3.23-3.41-3.08-.77-3.08-55.49v-50H54v50c0,40.76-.13,50.34-.72,51.73a13.37,13.37,0,0,1-5.85,6.33c-2.36,1.2-7.71,1.76-9.92,1Z"/><path id="path5075-2" data-name="path5075" class="cls-2" d="M76.74,35.4c0,11.11-9.26,20.11-20.67,20.11S35.4,46.51,35.4,35.4s9.26-20.11,20.67-20.11S76.74,24.3,76.74,35.4Z"/><path id="path2558-3" data-name="path2558" class="cls-1" d="M272.79,274.68c-4.2-1.38-7.53-4.48-8.48-7.9-.38-1.37-.56-29.25-.56-86.73V95.34h-4.26v32c0,31.35,0,32-1.1,33.91-1.39,2.45-3,3.61-6,4.43a9.69,9.69,0,0,1-11.28-5.27c-1.15-2.68-1.08-74.16.08-78.6,2.6-10,11-18.17,20.85-20.25,5.18-1.1,53-1.11,58.19,0A26.64,26.64,0,0,1,334,69.21a25.67,25.67,0,0,1,7.46,13.14c1,3.9,1.05,6,1.05,40,0,31.05-.11,36.11-.82,37.8a8.08,8.08,0,0,1-4.77,5c-4.2,1.93-9.53.69-12-2.8l-1.27-1.79-.15-32.58-.14-32.58h-4.24v85.13c0,93.32.21,87.12-3.08,90.6-2.61,2.74-5.27,3.78-9.68,3.78s-7.08-1-9.68-3.78c-3.24-3.41-3.09-.77-3.09-55.49v-50h-4.26v50c0,40.76-.13,50.34-.71,51.73a13.47,13.47,0,0,1-5.85,6.33c-2.36,1.2-7.72,1.76-9.93,1Z"/><path id="path5075-3" data-name="path5075" class="cls-2" d="M312,35.4c0,11.11-9.25,20.11-20.67,20.11s-20.66-9-20.66-20.11,9.25-20.11,20.66-20.11S312,24.3,312,35.4Z"/><path id="path2558-4" data-name="path2558" class="cls-1" d="M508,274.68c-4.2-1.38-7.52-4.48-8.47-7.9-.38-1.37-.56-29.25-.56-86.73V95.34h-4.25v32c0,31.35,0,32-1.1,33.91-1.4,2.45-3,3.61-6,4.43a9.69,9.69,0,0,1-11.28-5.27c-1.15-2.68-1.07-74.16.08-78.6,2.6-10,11-18.17,20.85-20.25,5.18-1.1,53-1.11,58.2,0a26.61,26.61,0,0,1,13.76,7.68,25.67,25.67,0,0,1,7.46,13.14c1,3.9,1.05,6,1.05,40,0,31.05-.11,36.11-.82,37.8a8.09,8.09,0,0,1-4.76,5c-4.2,1.93-9.54.69-12-2.8l-1.28-1.79-.15-32.58-.14-32.58h-4.23v85.13c0,93.32.21,87.12-3.09,90.6-2.61,2.74-5.26,3.78-9.68,3.78s-7.08-1-9.68-3.78c-3.23-3.41-3.09-.77-3.09-55.49v-50h-4.25v50c0,40.76-.14,50.34-.72,51.73a13.37,13.37,0,0,1-5.85,6.33c-2.36,1.2-7.72,1.76-9.93,1Z"/><path id="path5075-4" data-name="path5075" class="cls-2" d="M547.24,35.4c0,11.11-9.25,20.11-20.66,20.11s-20.67-9-20.67-20.11,9.25-20.11,20.67-20.11S547.24,24.3,547.24,35.4Z"/><path id="path2558-5" data-name="path2558" class="cls-1" d="M390.42,274.68c-4.2-1.38-7.53-4.48-8.48-7.9-.38-1.37-.56-29.25-.56-86.73V95.34h-4.26v32c0,31.35,0,32-1.1,33.91-1.4,2.45-3,3.61-6,4.43a9.71,9.71,0,0,1-11.29-5.27c-1.14-2.68-1.07-74.16.08-78.6,2.61-10,11-18.17,20.86-20.25,5.17-1.1,53-1.11,58.19,0a26.64,26.64,0,0,1,13.77,7.68,25.65,25.65,0,0,1,7.45,13.14c1,3.9,1.06,6,1.06,40,0,31.05-.11,36.11-.82,37.8a8.11,8.11,0,0,1-4.77,5c-4.2,1.93-9.54.69-12-2.8l-1.28-1.79-.14-32.58-.15-32.58H436.7v85.13c0,93.32.21,87.12-3.09,90.6-2.6,2.74-5.26,3.78-9.68,3.78s-7.07-1-9.68-3.78c-3.23-3.41-3.08-.77-3.08-55.49v-50h-4.26v50c0,40.76-.13,50.34-.72,51.73a13.37,13.37,0,0,1-5.85,6.33c-2.36,1.2-7.71,1.76-9.92,1Z"/><path id="path5075-5" data-name="path5075" class="cls-2" d="M429.62,35.4c0,11.11-9.26,20.11-20.67,20.11s-20.67-9-20.67-20.11S397.53,15.29,409,15.29,429.62,24.3,429.62,35.4Z"/><path id="path2558-6" data-name="path2558" class="cls-1" d="M625.67,274.68c-4.2-1.38-7.53-4.48-8.48-7.9-.38-1.37-.56-29.25-.56-86.73V95.34h-4.26v32c0,31.35,0,32-1.1,33.91-1.39,2.45-3,3.61-6,4.43A9.71,9.71,0,0,1,594,160.39c-1.14-2.68-1.07-74.16.09-78.6,2.6-10,11-18.17,20.85-20.25,5.18-1.1,53-1.11,58.19,0a26.64,26.64,0,0,1,13.77,7.68,25.67,25.67,0,0,1,7.46,13.14c1,3.9,1.05,6,1.05,40,0,31.05-.11,36.11-.82,37.8a8.11,8.11,0,0,1-4.77,5c-4.2,1.93-9.53.69-12-2.8l-1.28-1.79-.14-32.58-.15-32.58H672v85.13c0,93.32.21,87.12-3.08,90.6-2.61,2.74-5.27,3.78-9.68,3.78s-7.08-1-9.68-3.78c-3.24-3.41-3.09-.77-3.09-55.49v-50h-4.26v50c0,40.76-.13,50.34-.71,51.73a13.47,13.47,0,0,1-5.85,6.33c-2.36,1.2-7.72,1.76-9.93,1Z"/><path id="path5075-6" data-name="path5075" class="cls-2" d="M664.87,35.4c0,11.11-9.25,20.11-20.67,20.11s-20.67-9-20.67-20.11,9.26-20.11,20.67-20.11S664.87,24.3,664.87,35.4Z"/></svg>