<?xml version="1.0" encoding="utf-8"?>
<!-- Generator: Adobe Illustrator 24.0.3, SVG Export Plug-In . SVG Version: 6.00 Build 0)  -->
<svg version="1.1"
	 id="图层_1" xmlns:cc="http://creativecommons.org/ns#" xmlns:dc="http://purl.org/dc/elements/1.1/" xmlns:rdf="http://www.w3.org/1999/02/22-rdf-syntax-ns#" xmlns:svg="http://www.w3.org/2000/svg"
	 xmlns="http://www.w3.org/2000/svg" xmlns:xlink="http://www.w3.org/1999/xlink" x="0px" y="0px" viewBox="0 0 306 185"
	 style="enable-background:new 0 0 306 185;" xml:space="preserve">
<style type="text/css">
	.st0{fill:#ABCD03;}
	.st1{fill:#FFFCDB;}
	.st2{fill:#7D4698;}
</style>
<g id="layer3" transform="translate(-92,-63.999774)">
	<g id="layer5">
		<path id="path2554" class="st0" d="M264.5,78l-4.9,19.5c7-13.8,18-24.2,30.7-33.3C281,75,272.6,85.8,267.4,96.6
			c8.7-12.3,20.5-19.1,33.7-23.6c-17.6,15.7-31.6,32.6-42.3,49.5l-8.5-3.7C251.9,105.2,257,91.4,264.5,78L264.5,78z"/>
		<path id="path2534" class="st1" d="M241.9,115.1l16.1,6.7c0,4.1-0.3,16.6,2.2,20.3c26.8,34.5,22.3,103.7-5.4,105.5
			c-42.2,0-58.3-28.7-58.3-55c0-24,28.8-40,46-54.2C246.9,134.5,246.1,126.1,241.9,115.1L241.9,115.1z"/>
		<path id="path2536" class="st2" d="M258,121.6l5.8,3c-0.5,3.8,0.3,12.3,4.1,14.5c16.9,10.5,32.9,22,39.2,33.5
			c22.4,40.4-15.7,77.8-48.6,74.3c17.9-13.2,23.1-40.4,16.4-70.1c-2.7-11.6-7-22.1-14.5-34C257.2,136.9,258.3,129.6,258,121.6
			L258,121.6z"/>
	</g>
	<g id="layer4">
		<path id="path2538" d="M255.2,120.6l12,1.6c-3.6,11.7,7,19.9,10.4,21.9c7.6,4.2,15,8.6,20.9,13.9c11.1,10.1,17.3,24.3,17.3,39.3
			c0,14.9-6.8,29.2-18.3,38.8c-10.8,9-25.7,12.8-40.2,12.8c-9,0-17.1-0.4-25.8-3.3c-19.9-6.7-34.8-23.8-36.1-44.2
			c-1.1-16,2.5-28.1,14.9-40.8c6.4-6.7,19.4-14.3,28.3-20.5c4.4-3,9-11.5,0.1-27.5l1.8-1.4l13.2,8.8l-11.1-4.6
			c1,1.4,3.6,7.5,4.1,9.3c1.2,5.1,0.7,10-0.4,12.2c-5.6,10.1-15.2,12.8-22.1,18.6c-12.3,10.1-25.7,18.2-24.2,45.9
			c0.7,13.7,11.3,30.3,27.3,38.1c9,4.4,19.4,6.1,29.9,6.7c9.4,0.4,27.5-5.2,37.3-13.4c10.5-8.7,16.4-22,16.4-35.5
			c0-13.7-5.5-26.6-15.7-35.8c-5.9-5.3-15.6-11.7-21.6-15.2c-6-3.4-13.5-13-11.1-22.1L255.2,120.6z"/>
		<path id="path2540" d="M251.5,140.8c-1.2,6.3-2.6,17.6-8.1,21.9c-2.3,1.6-4.6,3.3-7.1,4.9c-9.8,6.7-19.7,13-24.2,29.1
			c-1,3.4-0.1,7.1,0.7,10.5c2.5,9.8,9.4,20.5,14.9,26.8c0,0.3,1.1,1,1.1,1.2c4.5,5.3,5.9,6.8,22.9,10.7l-0.4,1.9
			c-10.2-2.7-18.7-5.2-24-11.3c0-0.1-1-1.1-1-1.1c-5.7-6.6-12.7-17.5-15.3-27.7c-1-4.1-1.8-7.2-0.7-11.5c4.6-16.7,14.8-23.2,25-30.2
			c2.3-1.5,5.1-2.9,7.2-4.6C246.9,158.1,249.2,148.6,251.5,140.8L251.5,140.8z"/>
		<path id="path2542" d="M255.9,166.7c0.1,7.1-0.6,10.7,1.2,15.7c1.1,3,4.8,7.1,5.9,11.1c1.5,5.3,3.1,11.2,3,14.8
			c0,4.1-0.3,11.7-2,19.9c-1.4,6.8-4.5,12.6-9.7,15.9c-5.4-1.1-11.7-3-15.4-6.2c-7.2-6.3-13.6-16.8-14.5-25.9
			c-0.7-7.5,6.3-18.6,16-24.2c8.2-4.8,10.1-10.2,11.9-19c-2.5,7.6-4.8,14.1-12.7,18.2c-11.5,6-17.4,16.1-16.8,25.7
			c0.8,12.3,5.7,20.6,15.4,27.3c4.1,2.9,11.8,5.9,16.5,6.7V246c3.6-0.7,8.3-6.6,10.7-14.7c2-7.2,2.9-16.5,2.7-22.4
			c-0.1-3.4-1.6-10.8-4.4-17.5c-1.5-3.7-3.8-7.4-5.3-10C256.7,178.9,256.7,173.3,255.9,166.7z"/>
		<path id="path2544" d="M255.1,193.5c0.1,4.8,2.1,10.9,2.9,17.2c0.7,4.6,0.4,9.3,0.2,13.4c-0.1,4.7-1.7,13.2-3.9,17.4
			c-2-0.9-2.8-2-4.2-3.7c-1.6-2.3-2.8-4.6-3.8-7.4c-0.8-2-1.8-4.4-2.2-7.1c-0.5-4.1-0.4-10.5,4.2-17.1c3.6-5.2,4.4-5.6,5.6-11.6
			c-1.6,5.3-2.9,5.9-6.7,10.4c-4.2,4.9-4.9,12.2-4.9,18c0,2.5,1,5.2,1.9,7.8c1.1,2.7,2,5.5,3.5,7.5c2.3,3.3,5.1,5.2,6.6,5.6
			c0,0,0,0,0,0c0,0,0.1,0,0.1,0v-0.2c2.6-3,4.2-5.9,4.8-8.8c0.7-3.6,0.8-7.1,1.2-11.3c0.4-3.6,0.1-8.3-0.8-13.2
			C258.4,204.2,256,197.9,255.1,193.5L255.1,193.5z"/>
		<path id="path2550" d="M255.5,135.1c0.1,7.1,0.7,20.4,2.6,25.5c0.5,1.8,5.6,9.6,9.1,19c2.5,6.6,3,12.6,3.4,14.3
			c1.6,7.8-0.4,20.9-3.1,33.3c-1.4,6.7-6,15-11.3,18.3l-1.1,1.9c3-0.1,10.4-7.4,13-16.4c4.4-15.3,6.1-22.4,4.1-39.3
			c-0.3-1.6-1-7.2-3.6-13.2c-3.8-9.2-9.3-17.9-10-19.7C257.4,156,255.8,143.5,255.5,135.1L255.5,135.1z"/>
		<path id="path2552" d="M258.1,125.4c-0.4,7.3-0.5,10,0.9,15.3c1.5,5.9,9.2,14.3,12.3,24c6,18.6,4.5,42.9,0.1,61.9
			c-1.6,6.7-9.4,16.4-17.2,19.5l5.7,1.4c3.1-0.1,11.2-7.6,14.3-16.3c5.1-13.5,6-29.6,4-46.6c-0.1-1.6-2.9-16.3-5.5-22.4
			c-3.7-9.1-10.2-17.3-10.9-19.1C260.6,140.1,257.9,133.9,258.1,125.4L258.1,125.4z"/>
		<rect id="rect2556" x="253.7" y="120.2" width="0.6" height="126"/>
	</g>
</g>
</svg>
